<svg width="22" height="25" viewBox="0 0 22 25" fill="none" xmlns="http://www.w3.org/2000/svg">
<path fill-rule="evenodd" clip-rule="evenodd" d="M0.447443 12.6736C0.160945 12.9601 0 13.3488 0 13.754C0 14.1592 0.160945 14.5479 0.447443 14.8345L9.61678 24.0038C9.90336 24.2903 10.292 24.4512 10.6972 24.4512C11.1025 24.4512 11.4911 24.2903 11.7777 24.0038L20.947 14.8345C21.2254 14.5462 21.3794 14.1602 21.3759 13.7595C21.3725 13.3588 21.2117 12.9755 20.9284 12.6922C20.6451 12.4088 20.2618 12.2481 19.8611 12.2446C19.4604 12.2411 19.0743 12.3952 18.7861 12.6736L12.2255 19.2342V1.52823C12.2255 1.12292 12.0644 0.734207 11.7778 0.447611C11.4912 0.161013 11.1025 5.72205e-06 10.6972 5.72205e-06C10.2919 5.72205e-06 9.90321 0.161013 9.61661 0.447611C9.33002 0.734207 9.16901 1.12292 9.16901 1.52823V19.2342L2.60835 12.6736C2.32176 12.3871 1.93313 12.2261 1.5279 12.2261C1.12267 12.2261 0.734027 12.3871 0.447443 12.6736Z" fill="white"/>
</svg>
